<svg width="40" height="30" viewBox="0 0 40 30" fill="none" xmlns="http://www.w3.org/2000/svg">
<path d="M37.9988 0.00187111L1.99777 0.00187111C1.63328 0.00301361 1.276 0.103542 0.964394 0.292635C0.652782 0.481728 0.398643 0.752222 0.229332 1.07501C0.0600204 1.39779 -0.018055 1.76064 0.00351334 2.1245C0.0250778 2.48835 0.14547 2.83944 0.351727 3.13996L18.3522 29.1407C19.0983 30.2187 20.8943 30.2187 21.6423 29.1407L39.6428 3.13996C39.8512 2.84006 39.9734 2.4888 39.9961 2.12434C40.0189 1.75988 39.9413 1.39615 39.7718 1.07269C39.6024 0.749218 39.3475 0.478376 39.0349 0.289591C38.7223 0.100805 38.364 0.00129509 37.9988 0.00187111Z" fill="#6095C9"/>
</svg>
