<svg width="40" height="30" viewBox="0 0 40 30" fill="none" xmlns="http://www.w3.org/2000/svg">
<path d="M2.0012 29.9473H38.0022C38.3667 29.9462 38.724 29.8457 39.0356 29.6566C39.3472 29.4675 39.6014 29.197 39.7707 28.8742C39.94 28.5514 40.0181 28.1886 39.9965 27.8247C39.9749 27.4609 39.8545 27.1098 39.6483 26.8093L21.6478 0.808523C20.9017 -0.269508 19.1057 -0.269508 18.3577 0.808523L0.357158 26.8093C0.148801 27.1092 0.0266165 27.4604 0.00387796 27.8249C-0.0188606 28.1893 0.0587169 28.5531 0.228182 28.8765C0.397647 29.2 0.652518 29.4708 0.965103 29.6596C1.27769 29.8484 1.63603 29.9479 2.0012 29.9473Z" fill="#6095C9"/>
</svg>
